<svg xmlns="http://www.w3.org/2000/svg" width="1160" height="720" viewBox="0 0 1160 720" font-family="Lato, Helvetica, Arial, sans-serif">
<rect width="1160" height="720" fill="#FFFFFF"/>
<defs><marker id="arrow" markerWidth="10" markerHeight="10" refX="8" refY="3" orient="auto" markerUnits="strokeWidth"><path d="M0,0 L9,3 L0,6 z" fill="#33475B"/></marker><marker id="arrowS" markerWidth="10" markerHeight="10" refX="1" refY="3" orient="auto" markerUnits="strokeWidth"><path d="M9,0 L0,3 L9,6 z" fill="#33475B"/></marker></defs>
<rect x="360" y="120" width="440" height="470" rx="14" fill="#F7FAFE" stroke="#C9D6E3" stroke-width="1.5" stroke-dasharray="6 5"/>
<text x="376" y="143" font-size="15" font-weight="700" fill="#1F4E79" letter-spacing="0.3">Heph platform — multi-tenant SaaS (AWS)</text>
<path d="M 270.0,192.2 L 392.0,196.2" fill="none" stroke="#33475B" stroke-width="2"  marker-end="url(#arrow)" />
<rect x="290.8" y="184.2" width="80.4" height="18" rx="4" fill="#FFFFFF" opacity="0.92"/>
<text x="331.0" y="197.2" font-size="11.5" fill="#33475B" text-anchor="middle">HTTPS · SSO</text>
<path d="M 266.6,285.0 L 395.3,233.0" fill="none" stroke="#33475B" stroke-width="2"  marker-end="url(#arrow)" marker-start="url(#arrowS)"/>
<rect x="245.9" y="249.0" width="170.0" height="18" rx="4" fill="#FFFFFF" opacity="0.92"/>
<text x="330.9" y="262.0" font-size="11.5" fill="#33475B" text-anchor="middle">loan data · premium · COI</text>
<path d="M 270.0,465.1 L 392.0,472.6" fill="none" stroke="#33475B" stroke-width="2"  marker-end="url(#arrow)" />
<rect x="313.2" y="458.9" width="35.6" height="18" rx="4" fill="#FFFFFF" opacity="0.92"/>
<text x="331.0" y="471.9" font-size="11.5" fill="#33475B" text-anchor="middle">OIDC</text>
<path d="M 767.0,196.2 L 890.0,192.2" fill="none" stroke="#33475B" stroke-width="2"  marker-end="url(#arrow)" marker-start="url(#arrowS)"/>
<rect x="765.9" y="184.2" width="125.2" height="18" rx="4" fill="#FFFFFF" opacity="0.92"/>
<text x="828.5" y="197.2" font-size="11.5" fill="#33475B" text-anchor="middle">quote/proposal/COI</text>
<path d="M 767.0,301.0 L 890.0,313.7" fill="none" stroke="#33475B" stroke-width="2"  marker-end="url(#arrow)" marker-start="url(#arrowS)"/>
<rect x="781.9" y="297.4" width="93.2" height="18" rx="4" fill="#FFFFFF" opacity="0.92"/>
<text x="828.5" y="310.4" font-size="11.5" fill="#33475B" text-anchor="middle">pay · receipt</text>
<path d="M 742.7,326.0 L 917.5,420.0" fill="none" stroke="#33475B" stroke-width="2"  marker-end="url(#arrow)" />
<rect x="789.9" y="363.0" width="80.4" height="18" rx="4" fill="#FFFFFF" opacity="0.92"/>
<text x="830.1" y="376.0" font-size="11.5" fill="#33475B" text-anchor="middle">OTP · links</text>
<path d="M 567.0,199.0 L 592.0,199.0" fill="none" stroke="#33475B" stroke-width="2" stroke-dasharray="7 5" marker-end="url(#arrow)" />
<path d="M 552.6,233.0 L 606.4,258.0" fill="none" stroke="#33475B" stroke-width="2" stroke-dasharray="7 5" marker-end="url(#arrow)" />
<rect x="392" y="165" width="175" height="68" rx="9" fill="#E7F0FB" stroke="#1F4E79" stroke-width="2"/>
<text x="479.5" y="204.0" font-size="13" font-weight="700" fill="#1F4E79" text-anchor="middle">Journey orchestration</text>
<rect x="392" y="258" width="175" height="68" rx="9" fill="#E7F0FB" stroke="#1F4E79" stroke-width="2"/>
<text x="479.5" y="297.0" font-size="13" font-weight="700" fill="#1F4E79" text-anchor="middle">Product catalogue</text>
<rect x="392" y="351" width="175" height="68" rx="9" fill="#E9F5EE" stroke="#2E8B57" stroke-width="2"/>
<text x="479.5" y="390.0" font-size="13" font-weight="700" fill="#2E8B57" text-anchor="middle">Data &amp; intelligence</text>
<rect x="392" y="444" width="175" height="68" rx="9" fill="#E7F0FB" stroke="#1F4E79" stroke-width="2"/>
<text x="479.5" y="483.0" font-size="13" font-weight="700" fill="#1F4E79" text-anchor="middle">Identity &amp; tenancy</text>
<rect x="592" y="165" width="175" height="68" rx="9" fill="#E7F0FB" stroke="#1F4E79" stroke-width="2"/>
<text x="679.5" y="204.0" font-size="13" font-weight="700" fill="#1F4E79" text-anchor="middle">Insurer adapters</text>
<rect x="592" y="258" width="175" height="68" rx="9" fill="#E7F0FB" stroke="#1F4E79" stroke-width="2"/>
<text x="679.5" y="297.0" font-size="13" font-weight="700" fill="#1F4E79" text-anchor="middle">Consent &amp; payments</text>
<rect x="592" y="351" width="175" height="68" rx="9" fill="#E7F0FB" stroke="#1F4E79" stroke-width="2"/>
<text x="679.5" y="390.0" font-size="13" font-weight="700" fill="#1F4E79" text-anchor="middle">Admin &amp; config studio</text>
<rect x="592" y="444" width="175" height="68" rx="9" fill="#E7F0FB" stroke="#1F4E79" stroke-width="2"/>
<text x="679.5" y="483.0" font-size="13" font-weight="700" fill="#1F4E79" text-anchor="middle">Observability</text>
<rect x="70" y="150" width="200" height="78" rx="9" fill="#FDF0E3" stroke="#C77D2E" stroke-width="2"/>
<text x="170.0" y="187.5" font-size="15" font-weight="700" fill="#C77D2E" text-anchor="middle">RM workstation</text>
<text x="170.0" y="205.5" font-size="12" fill="#5A6675" text-anchor="middle">browser · RM-led journey</text>
<rect x="70" y="285" width="200" height="78" rx="9" fill="#FFFFFF" stroke="#6B7785" stroke-width="2"/>
<text x="170.0" y="322.5" font-size="15" font-weight="700" fill="#6B7785" text-anchor="middle">Lender LOS</text>
<text x="170.0" y="340.5" font-size="12" fill="#5A6675" text-anchor="middle">loan origination system</text>
<rect x="70" y="420" width="200" height="78" rx="9" fill="#FFFFFF" stroke="#6B7785" stroke-width="2"/>
<text x="170.0" y="457.5" font-size="15" font-weight="700" fill="#6B7785" text-anchor="middle">Lender IdP / SSO</text>
<text x="170.0" y="475.5" font-size="12" fill="#5A6675" text-anchor="middle">OIDC · tenant identity</text>
<rect x="890" y="150" width="200" height="78" rx="9" fill="#FFFFFF" stroke="#6B7785" stroke-width="2"/>
<text x="990.0" y="187.5" font-size="15" font-weight="700" fill="#6B7785" text-anchor="middle">Insurer APIs</text>
<text x="990.0" y="205.5" font-size="12" fill="#5A6675" text-anchor="middle">quote · proposal · COI</text>
<rect x="890" y="285" width="200" height="78" rx="9" fill="#FFFFFF" stroke="#6B7785" stroke-width="2"/>
<text x="990.0" y="322.5" font-size="15" font-weight="700" fill="#6B7785" text-anchor="middle">Payment gateway</text>
<text x="990.0" y="340.5" font-size="12" fill="#5A6675" text-anchor="middle">self-funded premium</text>
<rect x="890" y="420" width="200" height="78" rx="9" fill="#EAF6F6" stroke="#2C7A7B" stroke-width="2"/>
<text x="990.0" y="457.5" font-size="15" font-weight="700" fill="#2C7A7B" text-anchor="middle">Customer mobile</text>
<text x="990.0" y="475.5" font-size="12" fill="#5A6675" text-anchor="middle">OTP · health · pay</text>
<text x="580" y="38" font-size="19" font-weight="700"  fill="#1F4E79" text-anchor="middle">Heph — Multi-Tenant Embedded Insurance Distribution · Platform Context</text>
</svg>