<svg xmlns="http://www.w3.org/2000/svg" width="1240" height="700" viewBox="0 0 1240 700" font-family="Lato, Helvetica, Arial, sans-serif">
<rect width="1240" height="700" fill="#FFFFFF"/>
<defs><marker id="arrow" markerWidth="10" markerHeight="10" refX="8" refY="3" orient="auto" markerUnits="strokeWidth"><path d="M0,0 L9,3 L0,6 z" fill="#33475B"/></marker><marker id="arrowS" markerWidth="10" markerHeight="10" refX="1" refY="3" orient="auto" markerUnits="strokeWidth"><path d="M9,0 L0,3 L9,6 z" fill="#33475B"/></marker></defs>
<path d="M 210.0,340.0 L 245.0,340.0" fill="none" stroke="#33475B" stroke-width="2"  marker-end="url(#arrow)" />
<path d="M 372.9,300.0 L 458.8,235.0" fill="none" stroke="#33475B" stroke-width="2"  marker-end="url(#arrow)" />
<path d="M 395.0,338.0 L 430.0,337.0" fill="none" stroke="#33475B" stroke-width="2"  marker-end="url(#arrow)" />
<path d="M 376.9,380.0 L 455.2,435.0" fill="none" stroke="#33475B" stroke-width="2"  marker-end="url(#arrow)" />
<path d="M 552.5,235.0 L 640.7,300.0" fill="none" stroke="#33475B" stroke-width="2"  marker-end="url(#arrow)" />
<path d="M 580.0,337.0 L 615.0,337.9" fill="none" stroke="#33475B" stroke-width="2"  marker-end="url(#arrow)" />
<path d="M 556.2,435.0 L 636.5,380.0" fill="none" stroke="#33475B" stroke-width="2"  marker-end="url(#arrow)" />
<path d="M 775.0,308.4 L 810.0,294.6" fill="none" stroke="#33475B" stroke-width="2"  marker-end="url(#arrow)" />
<path d="M 775.0,367.4 L 810.0,379.3" fill="none" stroke="#33475B" stroke-width="2"  marker-end="url(#arrow)" />
<path d="M 960.0,296.2 L 990.0,308.8" fill="none" stroke="#33475B" stroke-width="2"  marker-end="url(#arrow)" />
<path d="M 960.0,377.9 L 990.0,367.1" fill="none" stroke="#33475B" stroke-width="2"  marker-end="url(#arrow)" />
<path d="M 1065.0,300.0 L 1065.0,235.0" fill="none" stroke="#33475B" stroke-width="2"  marker-end="url(#arrow)" />
<rect x="1047.2" y="257.5" width="35.6" height="18" rx="4" fill="#FFFFFF" opacity="0.92"/>
<text x="1065.0" y="270.5" font-size="11.5" fill="#33475B" text-anchor="middle">pass</text>
<path d="M 1065.0,235.0 L 1065.0,450.0" fill="none" stroke="#33475B" stroke-width="2"  marker-end="url(#arrow)" />
<rect x="1037.6" y="332.5" width="54.8" height="18" rx="4" fill="#FFFFFF" opacity="0.92"/>
<text x="1065.0" y="345.5" font-size="11.5" fill="#33475B" text-anchor="middle">approve</text>
<rect x="60" y="300" width="150" height="80" rx="9" fill="#DCEBFA" stroke="#2E75B6" stroke-width="2"/>
<text x="135.0" y="338.5" font-size="14" font-weight="700" fill="#2E75B6" text-anchor="middle">Insurer profile</text>
<text x="135.0" y="355.5" font-size="11" fill="#5A6675" text-anchor="middle">identity · branding</text>
<rect x="245" y="300" width="150" height="80" rx="9" fill="#DCEBFA" stroke="#2E75B6" stroke-width="2"/>
<text x="320.0" y="338.5" font-size="14" font-weight="700" fill="#2E75B6" text-anchor="middle">Auth &amp; endpoints</text>
<text x="320.0" y="355.5" font-size="11" fill="#5A6675" text-anchor="middle">base URL · creds</text>
<rect x="430" y="165" width="150" height="70" rx="9" fill="#E7F0FB" stroke="#1F4E79" stroke-width="2"/>
<text x="505.0" y="205.0" font-size="13" font-weight="700" fill="#1F4E79" text-anchor="middle">Quote API map</text>
<rect x="430" y="300" width="150" height="70" rx="9" fill="#E7F0FB" stroke="#1F4E79" stroke-width="2"/>
<text x="505.0" y="340.0" font-size="13" font-weight="700" fill="#1F4E79" text-anchor="middle">Proposal API map</text>
<rect x="430" y="435" width="150" height="70" rx="9" fill="#E7F0FB" stroke="#1F4E79" stroke-width="2"/>
<text x="505.0" y="475.0" font-size="13" font-weight="700" fill="#1F4E79" text-anchor="middle">COI API map</text>
<rect x="615" y="300" width="160" height="80" rx="9" fill="#DCEBFA" stroke="#2E75B6" stroke-width="2"/>
<text x="695.0" y="330.5" font-size="13" font-weight="700" fill="#2E75B6" text-anchor="middle">Field &amp; schema</text>
<text x="695.0" y="346.5" font-size="13" font-weight="700" fill="#2E75B6" text-anchor="middle">mapping</text>
<text x="695.0" y="362.5" font-size="10" fill="#5A6675" text-anchor="middle">contract binding</text>
<rect x="810" y="230" width="150" height="70" rx="9" fill="#E7F0FB" stroke="#1F4E79" stroke-width="2"/>
<text x="885.0" y="270.0" font-size="13" font-weight="700" fill="#1F4E79" text-anchor="middle">Underwriting rules</text>
<rect x="810" y="370" width="150" height="70" rx="9" fill="#E7F0FB" stroke="#1F4E79" stroke-width="2"/>
<text x="885.0" y="402.0" font-size="13" font-weight="700" fill="#1F4E79" text-anchor="middle">Health</text>
<text x="885.0" y="418.0" font-size="13" font-weight="700" fill="#1F4E79" text-anchor="middle">questionnaire</text>
<rect x="990" y="300" width="150" height="80" rx="9" fill="#E9F5EE" stroke="#2E8B57" stroke-width="2"/>
<text x="1065.0" y="330.5" font-size="13" font-weight="700" fill="#2E8B57" text-anchor="middle">Sandbox test</text>
<text x="1065.0" y="346.5" font-size="13" font-weight="700" fill="#2E8B57" text-anchor="middle">harness</text>
<text x="1065.0" y="362.5" font-size="10" fill="#5A6675" text-anchor="middle">contract tests</text>
<rect x="990" y="165" width="150" height="70" rx="9" fill="#FBE9EC" stroke="#B0413E" stroke-width="2"/>
<text x="1065.0" y="198.5" font-size="13" font-weight="700" fill="#B0413E" text-anchor="middle">Approval gate</text>
<text x="1065.0" y="214.5" font-size="10" fill="#5A6675" text-anchor="middle">governance</text>
<rect x="990" y="450" width="150" height="80" rx="9" fill="#F0E9F8" stroke="#6A4C93" stroke-width="2"/>
<text x="1065.0" y="480.5" font-size="13" font-weight="700" fill="#6A4C93" text-anchor="middle">Publish to</text>
<text x="1065.0" y="496.5" font-size="13" font-weight="700" fill="#6A4C93" text-anchor="middle">catalogue</text>
<text x="1065.0" y="512.5" font-size="10" fill="#5A6675" text-anchor="middle">versioned</text>
<text x="620" y="38" font-size="20" font-weight="700"  fill="#1F4E79" text-anchor="middle">Insurer Onboarding — React Flow Node Studio</text>
<text x="620" y="64.0" font-size="12.5" font-weight="400"  fill="#6B7785" text-anchor="middle">node-driven, schema-validated onboarding · reused for new insurer and product extensibility</text>
</svg>